<svg id="Capa_1" data-name="Capa 1" xmlns="http://www.w3.org/2000/svg" xmlns:xlink="http://www.w3.org/1999/xlink" viewBox="0 0 200 200"><defs><style>.cls-1{fill:url(#Degradado_sin_nombre_131);}.cls-2{fill:url(#Degradado_sin_nombre_131-2);}.cls-3{fill:url(#Degradado_sin_nombre_131-3);}.cls-4{fill:url(#Degradado_sin_nombre_131-4);}.cls-5{fill:url(#Degradado_sin_nombre_131-5);}.cls-6{fill:url(#Degradado_sin_nombre_131-6);}.cls-7{fill:url(#Degradado_sin_nombre_131-7);}.cls-8{fill:url(#Degradado_sin_nombre_131-8);}.cls-9{fill:url(#Degradado_sin_nombre_131-9);}.cls-10{fill:url(#Degradado_sin_nombre_131-10);}.cls-11{fill:url(#Degradado_sin_nombre_131-11);}.cls-12{fill:#2c80aa;}.cls-13{fill:url(#Degradado_sin_nombre_131-12);}.cls-14{fill:#3a9ae4;}.cls-15{fill:url(#Degradado_sin_nombre_157);}</style><linearGradient id="Degradado_sin_nombre_131" x1="-8.41" y1="82.89" x2="320.5" y2="91.7" gradientUnits="userSpaceOnUse"><stop offset="0.04" stop-color="#79e89c"/><stop offset="0.33" stop-color="#1580c2"/><stop offset="0.36" stop-color="#1d77bb"/><stop offset="0.58" stop-color="#454998"/><stop offset="0.75" stop-color="#5f2c82"/><stop offset="0.85" stop-color="#68217a"/></linearGradient><linearGradient id="Degradado_sin_nombre_131-2" x1="44.73" y1="176.09" x2="276.43" y2="186.02" xlink:href="#Degradado_sin_nombre_131"/><linearGradient id="Degradado_sin_nombre_131-3" x1="44.95" y1="170.86" x2="276.65" y2="180.79" xlink:href="#Degradado_sin_nombre_131"/><linearGradient id="Degradado_sin_nombre_131-4" x1="44.91" y1="171.9" x2="276.61" y2="181.83" xlink:href="#Degradado_sin_nombre_131"/><linearGradient id="Degradado_sin_nombre_131-5" x1="44.98" y1="170.24" x2="276.68" y2="180.17" xlink:href="#Degradado_sin_nombre_131"/><linearGradient id="Degradado_sin_nombre_131-6" x1="44.94" y1="171.07" x2="276.65" y2="181" xlink:href="#Degradado_sin_nombre_131"/><linearGradient id="Degradado_sin_nombre_131-7" x1="44.96" y1="170.62" x2="276.66" y2="180.55" xlink:href="#Degradado_sin_nombre_131"/><linearGradient id="Degradado_sin_nombre_131-8" x1="45.05" y1="168.52" x2="276.75" y2="178.45" xlink:href="#Degradado_sin_nombre_131"/><linearGradient id="Degradado_sin_nombre_131-9" x1="45" y1="169.8" x2="276.7" y2="179.73" xlink:href="#Degradado_sin_nombre_131"/><linearGradient id="Degradado_sin_nombre_131-10" x1="45.02" y1="169.37" x2="276.72" y2="179.3" xlink:href="#Degradado_sin_nombre_131"/><linearGradient id="Degradado_sin_nombre_131-11" x1="45.11" y1="167.19" x2="276.81" y2="177.12" xlink:href="#Degradado_sin_nombre_131"/><linearGradient id="Degradado_sin_nombre_131-12" x1="57.97" y1="123.24" x2="120.23" y2="-9.94" xlink:href="#Degradado_sin_nombre_131"/><linearGradient id="Degradado_sin_nombre_157" x1="-111.59" y1="76.67" x2="246.02" y2="92" gradientUnits="userSpaceOnUse"><stop offset="0.04" stop-color="#79e89c"/><stop offset="0.33" stop-color="#1580c2"/><stop offset="0.54" stop-color="#3e5297"/><stop offset="0.68" stop-color="#543980"/><stop offset="0.76" stop-color="#5f2c7d"/><stop offset="0.85" stop-color="#68217a"/></linearGradient></defs><path class="cls-1" d="M103.55,18a67.92,67.92,0,1,0,67.92,67.92A67.92,67.92,0,0,0,103.55,18Zm0,132.51a64.59,64.59,0,1,1,64.59-64.59A64.59,64.59,0,0,1,103.55,150.48Z"/><path class="cls-2" d="M60.38,177.84a1.27,1.27,0,0,1-.45-.44,1.2,1.2,0,0,1,0-1.23,1.27,1.27,0,0,1,.45-.44,1.17,1.17,0,0,1,.61-.17,1.19,1.19,0,0,1,.61.17,1.27,1.27,0,0,1,.45.44,1.26,1.26,0,0,1,0,1.23,1.27,1.27,0,0,1-.45.44A1.19,1.19,0,0,1,61,178,1.17,1.17,0,0,1,60.38,177.84Z"/><path class="cls-3" d="M73.06,166.1h1.59v11.74H72.57l-3.64-8.68h-.17v8.68H67.17V166.1h2.09l3.64,9.08h.16Z"/><path class="cls-4" d="M84.63,174.24H78.7a2.65,2.65,0,0,0,1,1.66,3.63,3.63,0,0,0,2.13.57,11.1,11.1,0,0,0,2.15-.23l.22,1.54a14.2,14.2,0,0,1-2.57.23,5.61,5.61,0,0,1-2.54-.53,3.56,3.56,0,0,1-1.59-1.55,5.15,5.15,0,0,1-.55-2.49,5.84,5.84,0,0,1,.46-2.44,3.38,3.38,0,0,1,1.36-1.55,4,4,0,0,1,2.13-.54A3.53,3.53,0,0,1,83.71,170a4.59,4.59,0,0,1,1,3.12C84.68,173.51,84.66,173.89,84.63,174.24Zm-1.54-1.34a2.65,2.65,0,0,0-.56-1.81,1.94,1.94,0,0,0-1.56-.64,2.1,2.1,0,0,0-1.62.64,2.91,2.91,0,0,0-.71,1.81Z"/><path class="cls-5" d="M94.57,177.81a14,14,0,0,1-2.3.2,5.29,5.29,0,0,1-2.17-.37,2.39,2.39,0,0,1-1.22-1.12,4.52,4.52,0,0,1-.38-2v-4H86.3v-1.45h2.2v-2.65h1.75v2.65h4v1.45h-4v3.92a2,2,0,0,0,.51,1.52,2.45,2.45,0,0,0,1.67.47c.26,0,.53,0,.82,0l1.12-.13Z"/><path class="cls-6" d="M98.29,178a9.12,9.12,0,0,1-1.28-.19l.2-1.59a18.42,18.42,0,0,0,2.8.27,5.35,5.35,0,0,0,1.93-.26.87.87,0,0,0,.6-.83.78.78,0,0,0-.2-.58,1.45,1.45,0,0,0-.66-.32l-2-.51a5.57,5.57,0,0,1-1.35-.5,1.91,1.91,0,0,1-.75-.71,2.22,2.22,0,0,1-.25-1.09,2.51,2.51,0,0,1,.47-1.57,2.74,2.74,0,0,1,1.46-.88,9.47,9.47,0,0,1,2.57-.28,15.72,15.72,0,0,1,2.32.17L104,170.6q-1.26-.12-2.19-.12a6.05,6.05,0,0,0-2,.25.87.87,0,0,0-.62.83.65.65,0,0,0,.22.54,1.86,1.86,0,0,0,.73.32l1.62.39a6.92,6.92,0,0,1,1.52.55,2,2,0,0,1,1.14,1.95,2.39,2.39,0,0,1-.46,1.54,2.62,2.62,0,0,1-1.41.88A9.26,9.26,0,0,1,100,178C99.34,178,98.76,178,98.29,178Z"/><path class="cls-7" d="M112.42,170.81a2.47,2.47,0,0,0-1.26-.33,2.41,2.41,0,0,0-1.89.75,3.11,3.11,0,0,0-.68,2.13,3.21,3.21,0,0,0,.75,2.29,2.85,2.85,0,0,0,2.15.79,15.5,15.5,0,0,0,2.58-.22l.2,1.54a14.67,14.67,0,0,1-3,.25,5.25,5.25,0,0,1-2.45-.53,3.6,3.6,0,0,1-1.54-1.55,6,6,0,0,1,0-4.93,3.58,3.58,0,0,1,1.52-1.56,5.14,5.14,0,0,1,2.41-.53,4.67,4.67,0,0,1,2.2.48,2.73,2.73,0,0,1,1.3,1.34l-1.35,1A2.59,2.59,0,0,0,112.42,170.81Z"/><path class="cls-8" d="M123.35,169.75a3.45,3.45,0,0,1,.76,2.39v5.7h-1.75v-5.7a1.84,1.84,0,0,0-.42-1.29,1.48,1.48,0,0,0-1.16-.45c-1.37,0-2.06.84-2.06,2.51v4.93H117v-12.4h1.76v5.22h.16a1.72,1.72,0,0,1,.65-1.31,2.73,2.73,0,0,1,1.67-.44A2.77,2.77,0,0,1,123.35,169.75Z"/><path class="cls-9" d="M128.39,177.48a3.37,3.37,0,0,1-1.31-1.56,6.81,6.81,0,0,1,0-4.92,3.37,3.37,0,0,1,1.31-1.56,3.93,3.93,0,0,1,2.07-.53,3.88,3.88,0,0,1,2.07.53,3.39,3.39,0,0,1,1.32,1.56,6.95,6.95,0,0,1,0,4.92,3.39,3.39,0,0,1-1.32,1.56,3.88,3.88,0,0,1-2.07.53A3.93,3.93,0,0,1,128.39,177.48Zm3.56-1.82a4.83,4.83,0,0,0,0-4.4,1.81,1.81,0,0,0-3,0,4.83,4.83,0,0,0,0,4.4,1.81,1.81,0,0,0,3,0Z"/><path class="cls-10" d="M138.32,177.48a3.39,3.39,0,0,1-1.32-1.56,6.95,6.95,0,0,1,0-4.92,3.39,3.39,0,0,1,1.32-1.56,3.88,3.88,0,0,1,2.07-.53,3.93,3.93,0,0,1,2.07.53,3.43,3.43,0,0,1,1.31,1.56,6.95,6.95,0,0,1,0,4.92,3.43,3.43,0,0,1-1.31,1.56,3.93,3.93,0,0,1-2.07.53A3.88,3.88,0,0,1,138.32,177.48Zm3.56-1.82a4.91,4.91,0,0,0,0-4.4,1.82,1.82,0,0,0-3,0,4.91,4.91,0,0,0,0,4.4,1.82,1.82,0,0,0,3,0Z"/><path class="cls-11" d="M154.15,177.66a10.87,10.87,0,0,1-1.28.27,11.19,11.19,0,0,1-1.33.08,3.22,3.22,0,0,1-1.66-.37,2.07,2.07,0,0,1-.92-1.12,5.52,5.52,0,0,1-.3-2v-7.64h-2.58v-1.45h4.33v9a3.84,3.84,0,0,0,.14,1.16,1,1,0,0,0,.52.62,2.39,2.39,0,0,0,1.13.21,4.49,4.49,0,0,0,.78-.08,9,9,0,0,0,1-.24Z"/><path class="cls-12" d="M137.62,56.48h6.84a2.1,2.1,0,0,1,2,2.69l-14.93,51.9a2.77,2.77,0,0,1-.1.26h0c-.33.76-.82,1.54-1.64,1.55l-18.28-.06a2.11,2.11,0,0,1-1.94-3l26.12-52.13A2.11,2.11,0,0,1,137.62,56.48Z"/><path class="cls-13" d="M95.22,60.31c-.83-1.41-.08-3.83-.08-3.83H81.48C78,56.48,76.6,60,76.6,60l-16,52.17a2.34,2.34,0,0,0,2.21,3l7.95.1A2.35,2.35,0,0,0,72.92,114l25-52.9Z"/><path class="cls-14" d="M128.1,111l-2.9-4.62L97.53,57.47c-.39-.7-1.68-.93-2.45-.92l-11.62.09H81.39a4.46,4.46,0,0,0-3.21,1.18S81.24,56.36,83.6,61l26.14,51.78a4.38,4.38,0,0,0,4,2.31l14.1-.1h.11c3.06-.3,3.77-4,3.77-4C130.88,113.19,128.86,112.2,128.1,111Z"/><path class="cls-15" d="M103.55,12a73.89,73.89,0,1,0,73.89,73.89A73.89,73.89,0,0,0,103.55,12Zm0,146.34A72.45,72.45,0,1,1,176,85.89,72.45,72.45,0,0,1,103.55,158.34Z"/></svg>