<?xml version="1.0" encoding="utf-8"?>
<!-- Generator: Adobe Illustrator 25.2.1, SVG Export Plug-In . SVG Version: 6.00 Build 0)  -->
<svg version="1.1" id="Capa_1" xmlns="http://www.w3.org/2000/svg" xmlns:xlink="http://www.w3.org/1999/xlink" x="0px" y="0px"
	 viewBox="0 0 50 50" style="enable-background:new 0 0 50 50;" xml:space="preserve">
<style type="text/css">
	.st0{fill:#170C66;}
	.st1{fill:#FFFFFF;}
</style>
<g>
	<circle class="st0" cx="24.83" cy="25.17" r="24.83"/>
</g>
<g>
	<path class="st1" d="M25.85,23.9c-1.8-0.21-3.54-0.36-5.18-1.13c-0.44-0.21-0.63-0.47-0.62-1c0.03-1.87,0.25-2.23,2.06-2.74
		c2.53-0.71,5.06-0.68,7.59,0.02c0.33,0.09,0.65,0.24,0.96,0.39c0.69,0.33,1.04,0.82,1.02,1.64c-0.05,1.54,0.01,1.62-1.5,2.01
		C28.77,23.47,27.3,23.64,25.85,23.9z"/>
	<path class="st1" d="M33.01,25.9c0.72,0.24,1.39,0.46,2.07,0.68c1.15,0.38,2.31,0.74,3.45,1.16c0.47,0.17,0.75,0.13,1.11-0.27
		c1-1.1,2.61-1.36,3.95-0.73c1.34,0.63,2.11,2.1,1.91,3.61c-0.19,1.4-1.33,2.59-2.76,2.86c-1.96,0.38-3.84-1-4.03-3.01
		c-0.04-0.47-0.2-0.66-0.64-0.8c-1.51-0.47-3-1.01-4.51-1.48c-0.43-0.14-0.6-0.33-0.55-0.78C33.04,26.76,33.01,26.37,33.01,25.9z"/>
	<path class="st1" d="M19.43,12.1c1.05,1.78,2.08,3.53,3.13,5.32c-0.57,0.18-1.1,0.35-1.7,0.55c-0.71-1.2-1.42-2.41-2.14-3.62
		c-0.09-0.15-0.19-0.29-0.26-0.45c-0.28-0.66-0.66-0.93-1.47-0.85c-1.57,0.15-2.94-0.98-3.35-2.53c-0.4-1.49,0.28-3.08,1.63-3.85
		c1.35-0.76,3.14-0.5,4.19,0.63c1.07,1.13,1.23,2.91,0.39,4.22C19.73,11.7,19.59,11.87,19.43,12.1z"/>
	<path class="st1" d="M23.27,31.2c0.54,0.06,1.07,0.12,1.68,0.18c-0.37,1.63-0.73,3.21-1.1,4.81c1.15,0.72,1.84,1.71,1.83,3.1
		c-0.01,1.75-1.4,3.26-3.09,3.36c-1.91,0.11-3.5-1.12-3.72-2.9c-0.23-1.88,0.9-3.55,2.7-3.85c0.51-0.08,0.63-0.31,0.72-0.72
		c0.28-1.27,0.59-2.54,0.89-3.8C23.19,31.33,23.23,31.27,23.27,31.2z"/>
	<path class="st1" d="M18.64,24.13c0,0.61,0,1.14,0,1.75c-1.1,0.11-2.21,0.25-3.34,0.32c-0.47,0.03-0.71,0.15-0.87,0.64
		c-0.5,1.56-1.98,2.47-3.6,2.29c-1.59-0.18-2.86-1.41-3.03-2.95c-0.18-1.66,0.75-3.16,2.28-3.69c1.53-0.53,3.2,0.03,4.01,1.45
		c0.3,0.53,0.61,0.6,1.13,0.53C16.34,24.33,17.45,24.25,18.64,24.13z"/>
	<path class="st1" d="M31.17,18.09c0.48-0.51,0.93-1.03,1.43-1.51c0.26-0.25,0.37-0.43,0.22-0.83c-0.72-1.93,0.31-3.97,2.22-4.51
		c1.89-0.53,3.87,0.62,4.3,2.49c0.46,2-0.81,3.94-2.87,4.19c-0.74,0.09-1.52-0.16-2.46-0.28c-0.38,0.36-0.93,0.87-1.48,1.4
		C32.07,18.71,31.61,18.39,31.17,18.09z"/>
	<path class="st1" d="M20.16,23.99c1.06,0.29,2.05,0.68,3.08,0.84c2.69,0.42,5.36,0.38,7.9-0.8c0.35-0.16,0.51-0.12,0.54,0.31
		c0.08,1.18,0.02,1.36-1.14,1.75c-3.1,1.05-6.22,1.05-9.32,0.01C19.97,25.69,19.86,25.38,20.16,23.99z"/>
	<path class="st1" d="M26.17,30c-2.1-0.1-3.87-0.21-5.51-1.02c-0.51-0.25-0.85-1.3-0.56-1.77c0.05-0.09,0.35-0.11,0.48-0.05
		c2.95,1.29,5.99,1.26,9.05,0.55c0.52-0.12,1.02-0.36,1.51-0.58c0.32-0.14,0.47-0.11,0.52,0.27c0.13,1.11,0,1.37-1.03,1.77
		c-0.56,0.21-1.15,0.41-1.74,0.5C27.9,29.84,26.88,29.92,26.17,30z"/>
</g>
</svg>
