<?xml version="1.0" encoding="utf-8"?>
<!-- Generator: Adobe Illustrator 25.2.1, SVG Export Plug-In . SVG Version: 6.00 Build 0)  -->
<svg version="1.1" id="Capa_1" xmlns="http://www.w3.org/2000/svg" xmlns:xlink="http://www.w3.org/1999/xlink" x="0px" y="0px"
	 viewBox="0 0 32 32" style="enable-background:new 0 0 32 32;" xml:space="preserve">
<style type="text/css">
	.st0{fill:#170C66;}
	.st1{fill:#FFFFFF;}
</style>
<circle class="st0" cx="16" cy="16" r="15.95"/>
<g>
	<path class="st1" d="M20.74,13.18c0.13,0,0.22,0.01,0.31,0c0.2-0.02,0.33-0.16,0.33-0.33c0-0.18-0.14-0.32-0.34-0.32
		c-0.86,0-1.72,0-2.58,0c-0.21,0-0.34,0.13-0.35,0.31c-0.01,0.19,0.13,0.34,0.34,0.35c0.3,0.01,0.59,0,0.89,0
		c0.25,0,0.39,0.11,0.39,0.31c0.01,0.2-0.14,0.33-0.39,0.34c-0.19,0-0.37,0-0.59,0c0,0.11,0,0.19,0,0.28c0,0.93-0.01,1.87,0,2.8
		c0.01,0.47-0.17,0.82-0.58,1.05c-0.41,0.23-0.8,0.5-1.2,0.74c-0.12,0.07-0.14,0.13-0.12,0.27c0.24,1.57,0.08,3.08-0.78,4.44
		c-0.71,1.12-1.78,1.73-3.06,1.99c-1.45,0.29-2.9,0.25-4.28-0.35c-1.53-0.66-2.38-1.88-2.7-3.48c-0.26-1.28-0.23-2.55,0.31-3.76
		c0.58-1.3,1.52-2.26,2.83-2.83c0.23-0.1,0.3-0.23,0.3-0.47c-0.01-0.94-0.01-1.88,0-2.82c0-0.13-0.03-0.2-0.16-0.26
		c-0.5-0.24-0.75-0.75-0.63-1.28c0.11-0.5,0.54-0.87,1.08-0.87c1.11-0.01,2.21-0.01,3.32,0c0.54,0.01,0.97,0.37,1.09,0.89
		c0.11,0.51-0.14,1.03-0.63,1.26c-0.12,0.06-0.17,0.12-0.17,0.26c0.01,0.98,0,1.95,0,2.93c0,0.15,0.04,0.25,0.2,0.32
		c1.45,0.61,2.46,1.67,3.04,3.13c0.01,0.02,0.02,0.04,0.04,0.08c0.31-0.19,0.61-0.37,0.92-0.57c0.61-0.39,0.55-0.24,0.55-0.99
		c0-0.87,0-1.75,0-2.62c0-0.13-0.03-0.2-0.15-0.27c-0.4-0.22-0.58-0.66-0.47-1.09c0.11-0.41,0.48-0.72,0.92-0.72
		c0.88-0.01,1.76-0.01,2.65,0c0.45,0,0.82,0.3,0.92,0.72c0.11,0.43-0.07,0.87-0.47,1.09c-0.11,0.06-0.15,0.12-0.15,0.25
		c0,1.01,0.01,2.02,0,3.04c0,0.2,0.09,0.32,0.25,0.42c1.14,0.7,2.27,1.4,3.41,2.11c0.7,0.44,1.06,1.09,1.07,1.92
		c0.01,0.69,0.02,1.39-0.02,2.08c-0.08,1.12-1.03,2.03-2.15,2.04c-2.54,0.02-5.08,0.01-7.61,0.01c-0.04,0-0.07-0.01-0.12-0.01
		c0-0.2,0-0.4,0-0.63c0.1,0,0.19,0,0.28,0c2.42,0,4.84,0,7.27,0c0.84,0,1.46-0.46,1.67-1.21c0.02-0.09,0.05-0.18,0.05-0.28
		c0.01-0.72,0.04-1.45,0-2.17c-0.03-0.51-0.3-0.93-0.75-1.2c-1.11-0.69-2.22-1.39-3.34-2.06c-0.43-0.26-0.64-0.6-0.63-1.11
		c0.02-1.13,0.01-2.27,0.01-3.4C20.74,13.38,20.74,13.3,20.74,13.18z M12.76,10.9c0.09,0,0.17,0,0.25,0
		c0.33-0.01,0.54-0.19,0.54-0.49c0-0.3-0.2-0.49-0.54-0.49c-1.06,0-2.11,0-3.17,0c-0.33,0-0.54,0.2-0.53,0.5
		c0,0.29,0.22,0.48,0.55,0.48c0.38,0,0.77,0,1.15,0c0.26,0,0.4,0.11,0.41,0.32c0,0.21-0.14,0.33-0.41,0.33c-0.29,0-0.57,0-0.89,0
		c0,0.11,0,0.2,0,0.28c0,0.9-0.02,1.79,0.01,2.69c0.01,0.54-0.2,0.86-0.7,1.07c-1.03,0.43-1.8,1.17-2.32,2.15
		c-0.71,1.33-0.72,2.74-0.32,4.15c0.41,1.46,1.36,2.41,2.83,2.81c1.26,0.34,2.53,0.33,3.79-0.05c1.19-0.36,2.05-1.12,2.49-2.29
		c0.2-0.53,0.32-1.1,0.39-1.66c0.28-2.24-0.89-4.27-2.95-5.16c-0.41-0.18-0.6-0.46-0.6-0.91c0.01-1.16,0-2.33,0-3.49
		C12.75,11.06,12.75,10.99,12.76,10.9z"/>
	<path class="st1" d="M12.53,5.84c0,0.62-0.48,1.1-1.09,1.11c-0.61,0.01-1.11-0.49-1.11-1.11c0-0.63,0.48-1.1,1.12-1.1
		C12.07,4.74,12.54,5.22,12.53,5.84z M11.43,6.35c0.29,0,0.52-0.23,0.51-0.52c-0.01-0.27-0.25-0.51-0.52-0.51
		c-0.28,0-0.52,0.24-0.51,0.53C10.93,6.13,11.15,6.35,11.43,6.35z"/>
	<path class="st1" d="M18.78,8.12c0-0.54,0.42-0.96,0.96-0.96c0.54,0,0.98,0.43,0.98,0.97c0,0.53-0.44,0.97-0.97,0.97
		C19.22,9.11,18.78,8.66,18.78,8.12z M19.74,8.45c0.18,0,0.34-0.16,0.33-0.33c0-0.18-0.15-0.33-0.34-0.32
		c-0.18,0-0.31,0.13-0.32,0.31C19.42,8.3,19.57,8.45,19.74,8.45z"/>
	<path class="st1" d="M18.11,10.57c0,0.55-0.44,0.97-0.98,0.96c-0.53-0.01-0.96-0.44-0.95-0.98c0-0.53,0.43-0.97,0.96-0.97
		C17.67,9.59,18.11,10.03,18.11,10.57z M17.47,10.57c0-0.18-0.14-0.33-0.32-0.34c-0.18,0-0.33,0.15-0.34,0.32
		c0,0.18,0.14,0.33,0.32,0.33C17.32,10.9,17.46,10.76,17.47,10.57z"/>
	<path class="st1" d="M23.29,10.57c0,0.53-0.42,0.95-0.95,0.95c-0.51-0.01-0.94-0.45-0.94-0.97c0-0.51,0.43-0.93,0.95-0.93
		C22.88,9.62,23.3,10.04,23.29,10.57z M22.35,10.91c0.21,0,0.36-0.14,0.36-0.34c0-0.19-0.15-0.34-0.34-0.35
		c-0.2-0.01-0.36,0.15-0.36,0.35C22,10.76,22.15,10.91,22.35,10.91z"/>
	<path class="st1" d="M23.16,19.98c0.01,0.29-0.26,0.45-0.49,0.32c-0.21-0.12-0.41-0.25-0.61-0.37c-0.58-0.36-1.16-0.71-1.73-1.08
		c-0.1-0.07-0.21-0.22-0.22-0.34c-0.02-0.25,0.27-0.37,0.51-0.23c0.79,0.48,1.57,0.97,2.36,1.46c0.03,0.02,0.07,0.04,0.08,0.07
		C23.11,19.87,23.14,19.94,23.16,19.98z"/>
	<path class="st1" d="M8.66,7.17c0,0.16,0,0.3,0,0.47c0.17,0,0.32,0,0.48,0c0,0.22,0,0.42,0,0.64c-0.15,0-0.29,0-0.46,0
		C8.66,8.44,8.65,8.59,8.65,8.75c-0.21,0-0.4,0-0.62,0C8.02,8.6,8.01,8.45,8.01,8.28c-0.16,0-0.31,0-0.47,0c0-0.22,0-0.42,0-0.64
		c0.16,0,0.31,0,0.47,0c0.01-0.17,0.02-0.32,0.02-0.47C8.24,7.17,8.43,7.17,8.66,7.17z"/>
	<path class="st1" d="M15.31,7.96c0,0.31,0.03,0.33-0.3,0.31c-0.15-0.01-0.19,0.05-0.19,0.19c0,0.09-0.02,0.26-0.06,0.27
		c-0.15,0.03-0.31,0.02-0.47,0c-0.03,0-0.06-0.14-0.05-0.21C14.26,8.33,14.2,8.25,14,8.26c-0.08,0.01-0.24-0.03-0.24-0.06
		c-0.02-0.17-0.02-0.34,0.01-0.51c0-0.03,0.15-0.05,0.23-0.04c0.17,0.01,0.26-0.04,0.25-0.23c0-0.08,0.03-0.23,0.07-0.24
		c0.15-0.02,0.31-0.02,0.47,0.01c0.03,0,0.04,0.15,0.04,0.24c-0.01,0.15,0.04,0.22,0.21,0.21C15.31,7.65,15.31,7.66,15.31,7.96z"/>
	<path class="st1" d="M20.07,15.63c0,0.15,0.01,0.3,0,0.45c-0.01,0.22-0.15,0.36-0.33,0.35c-0.18-0.01-0.3-0.14-0.3-0.35
		c0-0.31-0.01-0.62,0-0.93c0-0.21,0.13-0.34,0.31-0.34c0.17,0,0.29,0.12,0.32,0.32c0,0.01,0,0.03,0,0.04
		C20.07,15.33,20.07,15.48,20.07,15.63z"/>
	<path class="st1" d="M11.72,15.8c0.77,0.07,1.4,0.28,1.98,0.65c0.18,0.11,0.22,0.29,0.13,0.45c-0.09,0.16-0.29,0.21-0.47,0.09
		c-0.49-0.31-1.03-0.48-1.6-0.55c-0.21-0.02-0.32-0.16-0.31-0.35C11.46,15.91,11.61,15.79,11.72,15.8z"/>
	<path class="st1" d="M12.08,13.36c0,0.21,0.01,0.42,0,0.63c-0.01,0.2-0.13,0.32-0.3,0.33c-0.18,0.01-0.32-0.12-0.33-0.33
		c-0.01-0.42-0.01-0.85,0-1.28c0-0.21,0.14-0.34,0.32-0.34c0.18,0,0.31,0.13,0.32,0.34C12.08,12.92,12.08,13.14,12.08,13.36
		C12.08,13.36,12.08,13.36,12.08,13.36z"/>
	<path class="st1" d="M15.32,18.45c-0.05,0.06-0.12,0.18-0.22,0.23c-0.14,0.07-0.29,0.02-0.38-0.12c-0.17-0.27-0.35-0.55-0.51-0.83
		c-0.09-0.15-0.06-0.3,0.08-0.41c0.13-0.1,0.3-0.12,0.39,0.01c0.22,0.31,0.41,0.65,0.62,0.99C15.31,18.34,15.31,18.37,15.32,18.45z"
		/>
</g>
</svg>
