<svg xmlns="http://www.w3.org/2000/svg" viewBox="0 0 198.38 199.76"><defs><style>.cls-1{fill:#231f20;}.cls-2{fill:#ee2c3e;}</style></defs><title>Square Black</title><g id="Layer_2" data-name="Layer 2"><g id="Layer_1-2" data-name="Layer 1"><path class="cls-1" d="M29.66,82.11H22.07v48.71h4.49V107.68h3.15q4.27,0,6.3-2.07c1.35-1.39,2-3.61,2-6.69v-8q0-4.56-2.05-6.69T29.66,82.11Zm3.88,8.82V99a4.66,4.66,0,0,1-.95,3.25,3.81,3.81,0,0,1-2.9,1H26.56V86.66h3.08a3.79,3.79,0,0,1,3,1,4.91,4.91,0,0,1,.89,3.23Z"/><path class="cls-1" d="M184.53,111.76a8.09,8.09,0,0,0-1.69-3.2,45,45,0,0,0-3.73-4,33.46,33.46,0,0,1-3.6-4,4.52,4.52,0,0,1-.85-1.54,8.6,8.6,0,0,1-.21-2.24V89.63q0-3.5,3.11-3.5A2.52,2.52,0,0,1,180,87.26a6.14,6.14,0,0,1,.62,3V98.5h4.16V89.63q0-4.09-1.64-6.07c-1.1-1.33-3-2-5.69-2q-7.5,0-7.5,8.06V96.9a25.32,25.32,0,0,0,.2,3.53,5.57,5.57,0,0,0,1.38,2.81c.65.8,1.32,1.58,2,2.33s1.26,1.32,1.91,2,1.22,1.21,1.82,1.83,1.19,1.31,1.75,2c.25.32.48.64.71,1a4.42,4.42,0,0,1,.47,1,6,6,0,0,1,.23,1.27c0,.5.06,1.1.06,1.81h0v6.92a4.32,4.32,0,0,1-.73,2.7,3,3,0,0,1-2.44.91,2.55,2.55,0,0,1-2.43-1.18,6.17,6.17,0,0,1-.67-3.08V113h-4.28V123.3a8.85,8.85,0,0,0,1.79,6q1.78,2.07,5.71,2.07c2.7,0,4.62-.69,5.78-2.07a9.11,9.11,0,0,0,1.72-6v-7A19.51,19.51,0,0,0,184.53,111.76Z"/><path class="cls-1" d="M14.47,108.56a43.58,43.58,0,0,0-3.73-4,33.46,33.46,0,0,1-3.6-4,4.69,4.69,0,0,1-.85-1.54,8.6,8.6,0,0,1-.21-2.24V89.63q0-3.5,3.11-3.5a2.52,2.52,0,0,1,2.43,1.13,6.14,6.14,0,0,1,.62,3V98.5H16.4V89.63q0-4.09-1.64-6.07c-1.1-1.33-3-2-5.69-2q-7.5,0-7.5,8.06V96.9a25.15,25.15,0,0,0,.21,3.53,5.43,5.43,0,0,0,1.37,2.81c.65.8,1.32,1.58,2,2.34s1.25,1.31,1.9,2,1.22,1.21,1.82,1.83,1.19,1.31,1.76,2c.24.32.48.64.7,1a4.2,4.2,0,0,1,.47,1,5,5,0,0,1,.23,1.27c0,.5.06,1.1.06,1.81v6.92a4.26,4.26,0,0,1-.73,2.7,2.94,2.94,0,0,1-2.43.91,2.56,2.56,0,0,1-2.44-1.18,6.17,6.17,0,0,1-.67-3.08V113H1.57V123.3a8.85,8.85,0,0,0,1.79,6q1.78,2.07,5.71,2.07c2.7,0,4.62-.69,5.78-2.07a9.11,9.11,0,0,0,1.73-6v-7a20.07,20.07,0,0,0-.41-4.56A8.12,8.12,0,0,0,14.47,108.56Z"/><path class="cls-1" d="M157.91,82.11h-7.6v48.71h4.5V107.68H158q4.28,0,6.3-2.07c1.34-1.39,2-3.61,2-6.69v-8q0-4.56-2.05-6.69T157.91,82.11Zm3.88,8.82V99a4.66,4.66,0,0,1-.95,3.25,3.81,3.81,0,0,1-2.9,1h-3.13V86.66h3.07a3.8,3.8,0,0,1,3,1,4.91,4.91,0,0,1,.89,3.23Z"/><path class="cls-1" d="M137.39,82.11H129.8v48.71h4.49V107.68h3.15q4.27,0,6.3-2.07c1.35-1.39,2-3.61,2-6.69v-8q0-4.56-2-6.69T137.39,82.11ZM141.27,99a4.66,4.66,0,0,1-1,3.25,3.79,3.79,0,0,1-2.89,1h-3.14V86.66h3.07a3.8,3.8,0,0,1,3,1,4.91,4.91,0,0,1,.89,3.23h0Z"/><path class="cls-1" d="M113.72,82.11,107,130.82h4.38l1.06-8.17h7.28l1.06,8.17h4.49L119,82.11Zm-.71,36.4q.83-6.27,1.62-12.46t1.57-12.52q.7,6.27,1.47,12.52t1.54,12.46Z"/><path class="cls-1" d="M45.72,82.11,39,130.82h4.37l1.07-8.17h7.27l1.06,8.17h4.5L51,82.11Zm5.5,36.4H45q.83-6.27,1.63-12.46T48.2,93.53q.7,6.27,1.48,12.52t1.54,12.46Z"/><polygon class="cls-1" points="85.45 108.27 91.36 108.27 91.36 103.71 85.45 103.71 85.45 86.66 93.85 86.66 93.85 82.11 80.96 82.11 80.96 130.82 80.96 130.82 94.15 130.82 94.15 126.38 85.45 126.38 85.45 108.27"/><path class="cls-1" d="M68.6,81.57q-7.74,0-7.75,8.41v33.14q0,8.24,7.75,8.23c2.48,0,4.29-.68,5.41-2s1.69-3.46,1.69-6.3V113H71.62v10.12a4.94,4.94,0,0,1-.69,2.9,2.72,2.72,0,0,1-2.36.94q-3.22,0-3.22-3.84V89.92c0-2.52,1.07-3.79,3.22-3.79a2.75,2.75,0,0,1,2.39.92,5,5,0,0,1,.66,2.87V98.5H75.7V89.86Q75.7,81.58,68.6,81.57Z"/><path class="cls-1" d="M156.17,56.89a14.68,14.68,0,1,1,14.68-14.68A14.7,14.7,0,0,1,156.17,56.89Zm0-27.11A12.43,12.43,0,1,0,168.6,42.21,12.44,12.44,0,0,0,156.17,29.78Z"/><path class="cls-1" d="M165.76,33.75a1.13,1.13,0,0,1-.8-1.92l12.62-12.62a1.12,1.12,0,0,1,1.59,1.59L166.55,33.42A1.11,1.11,0,0,1,165.76,33.75Z"/><path class="cls-1" d="M154.85,29.84A1.12,1.12,0,0,1,154,28l11.3-14.1a1.12,1.12,0,1,1,1.75,1.4L155.73,29.42A1.13,1.13,0,0,1,154.85,29.84Z"/><path class="cls-1" d="M147.62,32.82a1,1,0,0,1-.47-.11,1.12,1.12,0,0,1-.55-1.49L160.71.65A1.12,1.12,0,0,1,162.2.1a1.13,1.13,0,0,1,.55,1.5L148.64,32.16A1.12,1.12,0,0,1,147.62,32.82Z"/><path class="cls-1" d="M169.67,44.66a1.13,1.13,0,0,1-.71-2l14.11-11.29a1.13,1.13,0,0,1,1.41,1.76L170.37,44.41A1.11,1.11,0,0,1,169.67,44.66Z"/><path class="cls-1" d="M166.69,51.89a1.13,1.13,0,0,1-.47-2.15l30.57-14.11a1.13,1.13,0,0,1,.94,2l-30.57,14.1A1.12,1.12,0,0,1,166.69,51.89Z"/><path class="cls-1" d="M2.73,64.6a.32.32,0,0,1,.3-.31H5a.32.32,0,0,1,.3.31V75.19a.31.31,0,0,1-.3.31H3a.31.31,0,0,1-.3-.31Z"/><path class="cls-1" d="M12.79,64.42a.31.31,0,0,1,.31-.29h.4l6.38,6.15h0V64.6a.31.31,0,0,1,.31-.31h1.92a.32.32,0,0,1,.3.31V75.37a.3.3,0,0,1-.3.29h-.26a.49.49,0,0,1-.21-.08l-6.32-6.36h0v6a.3.3,0,0,1-.3.31H13.11a.31.31,0,0,1-.3-.31Z"/><path class="cls-1" d="M31.42,66.65H29.13a.3.3,0,0,1-.3-.31V64.6a.3.3,0,0,1,.3-.31h7.11a.31.31,0,0,1,.3.31v1.74a.31.31,0,0,1-.3.31H34v8.54a.32.32,0,0,1-.31.31H31.72a.31.31,0,0,1-.3-.31Z"/><path class="cls-1" d="M42.94,64.6a.31.31,0,0,1,.3-.31h6.63a.31.31,0,0,1,.3.31v1.74a.31.31,0,0,1-.3.31H45.44v2h3.64a.32.32,0,0,1,.31.31v1.74a.31.31,0,0,1-.31.31H45.44v2.16h4.43a.3.3,0,0,1,.3.3v1.74a.3.3,0,0,1-.3.31H43.24a.3.3,0,0,1-.3-.31Z"/><path class="cls-1" d="M57.11,64.6a.31.31,0,0,1,.31-.31h4.79A3.43,3.43,0,0,1,63.33,71L65.52,75a.31.31,0,0,1-.27.47H63.12a.3.3,0,0,1-.26-.14l-2.13-4.25h-1.1v4.08a.32.32,0,0,1-.31.31h-1.9a.31.31,0,0,1-.31-.31ZM62,69.08a1.28,1.28,0,0,0,1.21-1.28A1.23,1.23,0,0,0,62,66.58H59.63v2.5Z"/><path class="cls-1" d="M72.62,64.42a.3.3,0,0,1,.3-.29h.4l6.39,6.15h0V64.6a.3.3,0,0,1,.3-.31H82a.32.32,0,0,1,.3.31V75.37a.3.3,0,0,1-.3.29h-.26a.5.5,0,0,1-.2-.08l-6.33-6.36h0v6a.31.31,0,0,1-.31.31h-1.9a.32.32,0,0,1-.31-.31Z"/><path class="cls-1" d="M88.36,75.08l5-10.77a.32.32,0,0,1,.27-.18h.16a.33.33,0,0,1,.28.18l5,10.77a.29.29,0,0,1-.28.42H97c-.29,0-.42-.1-.56-.4l-.58-1.27H91.55L91,75.11a.6.6,0,0,1-.58.39H88.63A.29.29,0,0,1,88.36,75.08Zm6.58-3.42L93.72,69h0l-1.2,2.64Z"/><path class="cls-1" d="M106.06,66.65h-2.29a.3.3,0,0,1-.3-.31V64.6a.3.3,0,0,1,.3-.31h7.11a.31.31,0,0,1,.3.31v1.74a.31.31,0,0,1-.3.31h-2.29v8.54a.32.32,0,0,1-.31.31h-1.92a.31.31,0,0,1-.3-.31Z"/><path class="cls-1" d="M117.58,64.6a.32.32,0,0,1,.3-.31h1.92a.33.33,0,0,1,.31.31V75.19a.32.32,0,0,1-.31.31h-1.92a.31.31,0,0,1-.3-.31Z"/><path class="cls-1" d="M132.59,64.13a5.77,5.77,0,1,1-5.75,5.78A5.75,5.75,0,0,1,132.59,64.13Zm0,9a3.2,3.2,0,1,0-3.19-3.19A3.21,3.21,0,0,0,132.59,73.1Z"/><path class="cls-1" d="M145.07,64.42a.3.3,0,0,1,.3-.29h.4l6.39,6.15h0V64.6a.31.31,0,0,1,.31-.31h1.92a.32.32,0,0,1,.3.31V75.37a.3.3,0,0,1-.3.29h-.26a.54.54,0,0,1-.21-.08l-6.32-6.36h0v6a.3.3,0,0,1-.3.31h-1.9a.32.32,0,0,1-.31-.31Z"/><path class="cls-1" d="M160.81,75.08l5-10.77a.32.32,0,0,1,.27-.18h.16a.32.32,0,0,1,.27.18l5,10.77a.28.28,0,0,1-.27.42h-1.78c-.28,0-.41-.1-.56-.4l-.57-1.27H164l-.57,1.28a.6.6,0,0,1-.58.39h-1.76A.28.28,0,0,1,160.81,75.08Zm6.58-3.42L166.17,69h0L165,71.66Z"/><path class="cls-1" d="M177.64,64.6a.31.31,0,0,1,.31-.31h1.9a.32.32,0,0,1,.3.31v8.55H184a.3.3,0,0,1,.31.3v1.74a.31.31,0,0,1-.31.31h-6a.31.31,0,0,1-.31-.31Z"/><path class="cls-1" d="M9.39,136.73a8.73,8.73,0,0,1,6.29,2.41.49.49,0,0,1,0,.73l-2,2.11a.46.46,0,0,1-.65,0,5.33,5.33,0,0,0-3.51-1.33,5.32,5.32,0,0,0,0,10.64A5.56,5.56,0,0,0,13,150a.5.5,0,0,1,.67,0l2,2.16a.51.51,0,0,1,0,.7,8.89,8.89,0,0,1-6.31,2.53,9.36,9.36,0,1,1,0-18.72Z"/><path class="cls-1" d="M23.5,137.48A.51.51,0,0,1,24,137h3.09a.49.49,0,0,1,.5.49V144H35v-6.55a.49.49,0,0,1,.5-.49h3.09a.5.5,0,0,1,.49.49v17.21a.51.51,0,0,1-.49.5H35.52a.5.5,0,0,1-.5-.5v-6.84H27.59v6.84a.5.5,0,0,1-.5.5H24a.52.52,0,0,1-.5-.5Z"/><path class="cls-1" d="M45.92,154.51,54.05,137a.54.54,0,0,1,.45-.28h.26a.54.54,0,0,1,.44.28l8.14,17.5a.47.47,0,0,1-.45.68H60c-.47,0-.68-.16-.91-.65l-.94-2.06H51.09l-.94,2.08a1,1,0,0,1-.93.63H46.36A.46.46,0,0,1,45.92,154.51ZM56.6,149l-2-4.29h0l-2,4.29Z"/><path class="cls-1" d="M70.15,137.48a.49.49,0,0,1,.49-.49h3.1a.5.5,0,0,1,.49.49v13.88h6.19a.5.5,0,0,1,.49.5v2.83a.5.5,0,0,1-.49.5H70.64a.5.5,0,0,1-.49-.5Z"/><path class="cls-1" d="M88.11,137.48a.49.49,0,0,1,.5-.49H91.7a.51.51,0,0,1,.5.49v13.88h6.18a.5.5,0,0,1,.5.5v2.83a.5.5,0,0,1-.5.5H88.61a.5.5,0,0,1-.5-.5Z"/><path class="cls-1" d="M106.08,137.48a.49.49,0,0,1,.49-.49h10.77a.49.49,0,0,1,.49.49v2.83a.5.5,0,0,1-.49.5h-7.21V144h5.93a.52.52,0,0,1,.5.5v2.83a.49.49,0,0,1-.5.49h-5.93v3.51h7.21a.5.5,0,0,1,.49.5v2.83a.5.5,0,0,1-.49.5H106.57a.5.5,0,0,1-.49-.5Z"/><path class="cls-1" d="M126,137.19a.48.48,0,0,1,.49-.46h.65l10.38,10h0v-9.23a.49.49,0,0,1,.5-.49h3.12a.5.5,0,0,1,.49.49V155a.49.49,0,0,1-.49.47h-.42a.78.78,0,0,1-.34-.13L130.1,145h0v9.7a.5.5,0,0,1-.5.5h-3.09a.52.52,0,0,1-.5-.5Z"/><path class="cls-1" d="M158.81,136.75a10,10,0,0,1,6.34,2.45.45.45,0,0,1,0,.7l-2,2.18a.56.56,0,0,1-.7,0,4.8,4.8,0,0,0-3.41-1.25,5.22,5.22,0,0,0,0,10.43,6.18,6.18,0,0,0,2.31-.42v-1.51h-1.64a.47.47,0,0,1-.49-.47v-2.57a.47.47,0,0,1,.49-.49H165a.49.49,0,0,1,.47.49l0,7a.63.63,0,0,1-.21.42,13.09,13.09,0,0,1-6.44,1.69,9.34,9.34,0,1,1,0-18.67Z"/><path class="cls-1" d="M173.7,137.48a.49.49,0,0,1,.5-.49H185a.49.49,0,0,1,.5.49v2.83a.5.5,0,0,1-.5.5h-7.2V144h5.93a.51.51,0,0,1,.49.5v2.83a.48.48,0,0,1-.49.49h-5.93v3.51H185a.5.5,0,0,1,.5.5v2.83a.5.5,0,0,1-.5.5H174.2a.5.5,0,0,1-.5-.5Z"/><path class="cls-2" d="M67.92,35.9a.34.34,0,0,1,.35-.32h.45l7.18,6.91h0V36.1a.34.34,0,0,1,.34-.34h2.16a.35.35,0,0,1,.34.34V48.22a.33.33,0,0,1-.34.32h-.29a.46.46,0,0,1-.23-.09l-7.11-7.14h0V48a.34.34,0,0,1-.34.34H68.28a.35.35,0,0,1-.34-.34Z"/><path class="cls-2" d="M82,47.9l5.64-12.12a.36.36,0,0,1,.31-.2h.18a.36.36,0,0,1,.3.2L94.1,47.9a.31.31,0,0,1-.31.46h-2c-.32,0-.46-.1-.63-.45l-.64-1.42h-4.9L85,47.93a.67.67,0,0,1-.65.43h-2A.32.32,0,0,1,82,47.9ZM89.43,44l-1.36-3h0L86.7,44Z"/><path class="cls-2" d="M96.65,46.65l.85-1.49a.46.46,0,0,1,.61-.11,5.34,5.34,0,0,0,2.56,1A1.13,1.13,0,0,0,101.91,45c0-.76-.63-1.33-1.86-1.82-1.55-.61-3.49-1.82-3.49-4,0-1.78,1.39-3.58,4.16-3.58a6.66,6.66,0,0,1,3.85,1.35.46.46,0,0,1,.11.58l-.92,1.38c-.12.2-.45.36-.61.24a5.65,5.65,0,0,0-2.57-1.08,1,1,0,0,0-1.14.91c0,.67.54,1.17,2,1.75S105,42.37,105,44.82a4,4,0,0,1-4.25,3.72,5.75,5.75,0,0,1-4.05-1.38C96.56,47,96.51,46.9,96.65,46.65Z"/><path class="cls-2" d="M107.41,47.9l5.64-12.12a.36.36,0,0,1,.31-.2h.18a.36.36,0,0,1,.3.2l5.64,12.12a.31.31,0,0,1-.31.46h-2c-.32,0-.46-.1-.63-.45l-.65-1.42H111l-.65,1.44a.67.67,0,0,1-.65.43h-2A.32.32,0,0,1,107.41,47.9Zm7.4-3.86-1.36-3h0l-1.35,3Z"/><path class="cls-1" d="M93.28,199.76a93,93,0,0,1-72.11-34.43,1.12,1.12,0,0,1,1.75-1.41A90.55,90.55,0,0,0,157.22,171a92.27,92.27,0,0,0,6.5-7.22,1.12,1.12,0,0,1,1.75,1.41,91.34,91.34,0,0,1-6.66,7.4A92.59,92.59,0,0,1,93.28,199.76Z"/><path class="cls-1" d="M19.44,53.8a1.15,1.15,0,0,1-.66-.21A1.13,1.13,0,0,1,18.54,52,92.77,92.77,0,0,1,147.36,31.6,1.13,1.13,0,0,1,146,33.43,90.5,90.5,0,0,0,20.35,53.35,1.11,1.11,0,0,1,19.44,53.8Z"/></g></g></svg>